<?xml version="1.0" standalone="no"?>
<!DOCTYPE svg PUBLIC "-//W3C//DTD SVG 20010904//EN"
 "http://www.w3.org/TR/2001/REC-SVG-20010904/DTD/svg10.dtd">
<svg version="1.0" xmlns="http://www.w3.org/2000/svg"
 width="700.000000pt" height="700.000000pt" viewBox="0 0 700.000000 700.000000"
 preserveAspectRatio="xMidYMid meet">
<metadata>
Created by potrace 1.14, written by Peter Selinger 2001-2017
</metadata>
<g transform="translate(0.000000,700.000000) scale(0.100000,-0.100000)"
fill="#000000" stroke="none">
<path d="M735 6810 c-137 -19 -252 -77 -355 -180 -87 -86 -132 -164 -160 -276
-20 -76 -20 -121 -20 -2848 0 -3072 -6 -2817 67 -2966 50 -104 169 -223 273
-273 149 -73 -106 -67 2965 -67 3086 0 2828 -6 2976 71 182 95 301 270 329
480 8 59 10 884 8 2814 l-3 2730 -23 70 c-70 209 -218 357 -427 427 l-70 23
-2750 1 c-1512 1 -2777 -2 -2810 -6z m2910 -357 c22 -12 56 -39 76 -60 88 -94
99 -143 99 -426 0 -205 1 -219 18 -212 55 21 190 55 262 66 111 16 338 6 452
-20 198 -45 402 -129 591 -242 97 -58 140 -110 152 -180 6 -36 16 -46 118
-122 541 -404 885 -949 998 -1582 27 -150 38 -560 19 -743 -81 -818 -552
-1548 -1295 -2007 -778 -482 -1792 -588 -2672 -281 -443 155 -819 392 -1145
722 -372 376 -613 824 -712 1324 -38 191 -50 340 -43 555 10 353 88 668 243
995 144 301 303 521 558 775 122 121 164 156 214 180 54 25 62 32 57 50 -18
59 -17 105 5 149 27 56 74 92 215 161 335 165 736 222 1122 159 l42 -6 3 273
c3 255 4 277 24 320 38 82 107 145 184 170 14 4 104 7 200 6 158 -2 179 -4
215 -24z"/>
<path d="M3253 6233 c-16 -24 -19 -61 -23 -333 -4 -219 -9 -311 -18 -327 -7
-12 -29 -35 -49 -50 -32 -25 -45 -28 -107 -28 -39 0 -137 6 -218 13 -223 20
-454 -4 -689 -72 -176 -51 -175 -55 18 -55 167 0 239 -7 353 -36 30 -8 67 -16
82 -20 72 -15 139 -127 124 -206 -9 -48 -41 -96 -78 -118 -18 -11 -38 -24 -44
-29 -6 -6 -24 -17 -41 -25 -41 -22 -197 -167 -274 -255 -60 -69 -163 -222
-155 -230 2 -2 57 32 122 75 198 132 284 181 327 188 22 4 72 20 111 35 129
50 178 60 282 60 142 -1 206 -34 233 -123 5 -18 12 -142 16 -277 11 -438 51
-742 117 -899 l19 -44 24 35 c37 54 112 208 150 306 76 198 113 390 124 652
10 215 18 245 82 287 36 23 55 29 120 32 229 10 582 -110 782 -265 59 -46 60
-46 53 -18 -12 52 -74 173 -127 250 -62 89 -133 156 -249 234 -94 63 -114 86
-131 152 -23 85 29 181 114 212 58 21 280 47 482 55 l170 7 -115 56 c-254 123
-484 172 -699 148 -105 -11 -234 -46 -303 -81 -47 -24 -92 -24 -143 1 -53 25
-68 38 -94 80 -20 33 -21 48 -22 300 0 178 -4 277 -12 300 l-12 35 -142 3
-142 3 -18 -28z"/>
<path d="M2335 5134 c-189 -33 -360 -67 -505 -101 -177 -40 -172 -37 -349
-214 -300 -301 -520 -680 -620 -1072 -58 -226 -66 -291 -66 -567 1 -275 12
-371 71 -590 195 -720 762 -1341 1509 -1653 822 -343 1783 -293 2556 133 635
350 1091 917 1254 1559 57 227 79 512 56 746 -65 668 -415 1276 -971 1687 -68
51 -82 57 -153 67 -136 19 -610 9 -648 -15 -4 -2 60 -72 142 -155 82 -83 149
-156 149 -162 0 -5 12 -25 26 -44 48 -63 120 -234 143 -340 27 -122 20 -164
-37 -225 -46 -48 -95 -62 -170 -47 -43 9 -66 22 -125 73 -133 115 -251 184
-405 236 -86 29 -238 60 -292 60 l-28 0 -7 -112 c-26 -408 -143 -792 -330
-1079 -63 -97 -119 -140 -194 -146 -60 -6 -124 27 -167 84 -119 157 -203 629
-204 1137 l0 149 -82 -6 c-180 -13 -399 -118 -668 -322 -57 -42 -118 -83 -136
-91 -74 -31 -166 -7 -207 54 -36 53 -50 113 -37 161 15 56 110 238 173 333 82
122 220 282 285 331 31 23 85 66 120 95 l62 52 -32 -1 c-18 -1 -69 -7 -113
-15z m-1019 -1168 c42 -42 42 -53 5 -198 -16 -62 -35 -151 -41 -198 -7 -47
-19 -97 -26 -112 -36 -70 -128 -92 -175 -42 -21 23 -24 34 -23 97 2 93 29 238
66 355 25 79 34 96 61 112 50 31 93 26 133 -14z m-108 -842 c29 -19 47 -63 60
-144 13 -88 45 -168 98 -247 50 -75 56 -118 24 -170 -26 -43 -54 -56 -104 -50
-31 4 -49 14 -72 42 -65 74 -139 261 -165 417 -11 68 -11 82 3 111 29 61 98
79 156 41z"/>
</g>
</svg>
