<?xml version="1.0" standalone="no"?>
<!DOCTYPE svg PUBLIC "-//W3C//DTD SVG 20010904//EN"
 "http://www.w3.org/TR/2001/REC-SVG-20010904/DTD/svg10.dtd">
<svg version="1.0" xmlns="http://www.w3.org/2000/svg"
 width="512.000000pt" height="512.000000pt" viewBox="0 0 512.000000 512.000000"
 preserveAspectRatio="xMidYMid meet">
<metadata>
Created by potrace 1.14, written by Peter Selinger 2001-2017
</metadata>
<g transform="translate(0.000000,512.000000) scale(0.100000,-0.100000)"
fill="#000000" stroke="none">
<path d="M585 5030 c-241 -28 -442 -210 -506 -458 -18 -73 -19 -130 -19 -2037
0 -1921 0 -1963 20 -2039 29 -115 73 -189 165 -282 61 -62 98 -90 155 -117
149 -72 -8 -67 2165 -67 2173 0 2016 -5 2164 67 148 71 282 238 322 403 21 82
21 3988 0 4070 -50 206 -220 382 -431 448 -51 15 -202 17 -2015 18 -1078 1
-1987 -2 -2020 -6z m4016 -26 c180 -53 323 -188 392 -370 l22 -59 3 -1975 c3
-2183 7 -2047 -60 -2182 -43 -87 -162 -204 -248 -246 -137 -67 17 -63 -2171
-60 l-1984 3 -62 23 c-165 62 -292 190 -356 358 l-22 59 -3 1988 c-3 2199 -7
2037 61 2177 61 126 210 245 353 285 40 11 398 13 2035 14 1790 1 1991 -1
2040 -15z"/>
<path d="M525 4867 c-158 -59 -261 -187 -285 -353 -13 -94 -13 -3804 0 -3898
25 -168 141 -304 310 -362 53 -18 120 -19 2015 -19 1895 0 1962 1 2015 19 123
42 218 127 273 243 l32 68 0 2000 0 2000 -32 68 c-44 93 -119 169 -212 215
l-75 37 -1990 2 -1991 2 -60 -22z m2162 -253 c21 -17 49 -51 63 -75 24 -42 25
-54 28 -222 4 -178 4 -179 25 -173 134 40 179 47 289 47 187 -1 311 -32 516
-133 140 -68 197 -115 207 -170 6 -31 18 -45 74 -86 332 -242 576 -587 676
-956 43 -158 57 -276 56 -471 -1 -326 -46 -538 -172 -803 -309 -653 -972
-1082 -1747 -1132 -422 -27 -840 66 -1201 265 -297 164 -562 412 -729 681
-184 297 -272 599 -272 939 0 402 130 771 388 1105 92 119 274 298 328 322 24
10 44 20 44 22 0 2 -5 17 -11 34 -14 42 3 93 43 127 83 70 309 153 493 181 97
15 306 14 407 -2 l37 -6 3 205 3 205 30 44 c17 23 49 53 70 66 37 21 50 22
177 20 136 -3 136 -3 175 -34z"/>
<path d="M2389 4494 c-11 -13 -15 -69 -19 -240 l-5 -224 -33 -32 c-37 -37 -24
-36 -272 -23 -176 9 -315 -8 -471 -59 l-104 -34 120 -1 c185 -2 330 -31 374
-75 18 -18 25 -39 29 -78 4 -47 1 -58 -23 -86 -15 -18 -31 -32 -36 -32 -29 0
-199 -152 -273 -244 -42 -52 -91 -136 -79 -136 5 0 49 27 99 61 136 93 161
106 293 149 101 33 135 40 202 40 154 0 164 -17 173 -300 8 -291 37 -500 82
-610 l15 -34 20 29 c110 162 185 421 196 674 6 151 16 182 65 207 61 32 231
12 387 -45 89 -33 148 -64 222 -117 26 -19 49 -34 52 -34 11 0 -13 63 -49 128
-49 91 -92 142 -166 196 -119 88 -127 96 -139 135 -16 53 13 120 63 144 38 18
284 47 398 47 38 0 70 4 70 9 0 14 -194 95 -290 122 -69 19 -109 23 -210 23
-127 0 -156 -7 -306 -65 -27 -11 -37 -9 -78 10 -72 35 -76 50 -76 268 0 245 4
237 -121 241 -80 2 -98 0 -110 -14z"/>
<path d="M1635 3694 c-204 -39 -348 -74 -375 -91 -40 -26 -192 -182 -254 -261
-161 -204 -271 -441 -327 -702 -20 -89 -23 -135 -23 -305 0 -170 3 -216 23
-305 162 -755 811 -1317 1641 -1419 109 -14 391 -14 500 0 374 46 756 204
1030 426 157 127 336 332 430 493 357 611 266 1374 -227 1909 -87 95 -246 231
-299 256 -30 14 -68 16 -274 13 -131 -2 -242 -6 -246 -11 -4 -4 12 -24 36 -44
169 -145 298 -370 300 -523 0 -64 -53 -119 -117 -120 -47 0 -71 12 -143 74
-112 96 -305 176 -455 188 l-40 3 -7 -115 c-15 -261 -99 -526 -231 -733 -38
-59 -93 -96 -143 -97 -29 0 -84 39 -111 79 -73 108 -133 464 -133 788 0 50 -4
94 -9 98 -17 10 -142 -15 -208 -41 -93 -37 -176 -86 -296 -174 -119 -87 -154
-100 -211 -76 -28 12 -42 26 -58 62 -20 45 -20 50 -5 98 45 142 206 362 350
477 l99 79 -44 -1 c-24 0 -101 -12 -173 -25z m-630 -790 c8 -4 22 -19 30 -35
14 -25 13 -36 -9 -118 -14 -50 -28 -117 -32 -149 -9 -74 -18 -91 -61 -108 -31
-13 -38 -13 -58 0 -34 23 -37 44 -21 153 32 214 75 286 151 257z m-51 -617
c15 -15 25 -41 30 -76 9 -70 40 -149 77 -201 34 -46 34 -86 2 -122 -23 -26
-77 -23 -103 5 -32 33 -86 153 -103 227 -31 133 -31 127 1 160 36 36 65 38 96
7z"/>
</g>
</svg>
