<?xml version="1.0" encoding="utf-8"?>
<!-- Generator: Adobe Illustrator 19.0.0, SVG Export Plug-In . SVG Version: 6.00 Build 0)  -->
<svg version="1.1" id="Layer_1" xmlns="http://www.w3.org/2000/svg" xmlns:xlink="http://www.w3.org/1999/xlink" x="0px" y="0px"
	 viewBox="-223 25 512 512" style="enable-background:new -223 25 512 512;" xml:space="preserve">
<style type="text/css">
	.st0{fill:#FFFFFF;}
</style>
<g>
	<path class="st0" d="M271.9,502.8h-460.8V42.1c0-9.5-7.6-17.1-17-17.1c-9.4,0-17.1,7.6-17.1,17.1v460.8c0,4.7,1,9.2,2.7,13.3
		c2.6,6.1,6.9,11.3,12.3,15c2.7,1.8,5.7,3.3,9,4.3c3.2,1,6.6,1.5,10.1,1.5h460.8c9.4,0,17.1-7.6,17.1-17.1
		C289,510.5,281.4,502.8,271.9,502.8z"/>
	<path class="st0" d="M-137.8,462.2c3.1,2.1,6.4,3.7,10.1,4.8c3.6,1.1,7.5,1.7,11.4,1.7h42.7c5.3,0,10.3-1.1,15-3
		c6.9-2.9,12.7-7.8,16.9-13.9c2.1-3.1,3.7-6.4,4.8-10.1c1.1-3.6,1.7-7.5,1.7-11.4V268.2c0-5.3-1.1-10.3-3-15
		c-2.9-6.9-7.8-12.7-13.9-16.9c-3.1-2.1-6.4-3.7-10.1-4.8c-3.6-1.1-7.5-1.7-11.4-1.7h-42.7v17.1V264h42.7c0.6,0,1.2,0.1,1.7,0.3
		c0.7,0.3,1.4,0.9,1.9,1.6c0.2,0.3,0.4,0.7,0.5,1.1c0.1,0.4,0.2,0.8,0.2,1.3v162.1c0,0.6-0.1,1.2-0.3,1.7c-0.3,0.7-0.9,1.4-1.6,1.9
		c-0.3,0.2-0.7,0.4-1.1,0.5c-0.4,0.1-0.8,0.2-1.3,0.2h-42.7c-0.6,0-1.2-0.1-1.7-0.3c-0.7-0.3-1.4-0.9-1.9-1.6
		c-0.2-0.3-0.4-0.7-0.5-1.1s-0.2-0.8-0.2-1.3V268.2c0-0.6,0.1-1.2,0.3-1.7c0.3-0.7,0.9-1.4,1.6-1.9c0.3-0.2,0.7-0.4,1.1-0.5
		s0.8-0.2,1.3-0.2v-17v-17.1c-5.3,0-10.3,1.1-15,3c-6.9,2.9-12.7,7.8-16.9,13.9c-2.1,3.1-3.7,6.4-4.8,10.1
		c-1.1,3.6-1.7,7.5-1.7,11.4v162.1c0,5.3,1.1,10.3,3,15C-148.8,452.2-143.9,458-137.8,462.2z"/>
	<path class="st0" d="M15.8,462.2c3.1,2.1,6.4,3.7,10.1,4.8c3.6,1.1,7.5,1.7,11.4,1.7H80c5.3,0,10.3-1.1,15-3
		c6.9-2.9,12.7-7.8,16.9-13.9c2.1-3.1,3.7-6.4,4.8-10.1c1.1-3.6,1.7-7.5,1.7-11.4V217c0-5.3-1.1-10.3-3-15
		c-2.9-6.9-7.8-12.7-13.9-16.9c-3.1-2.1-6.4-3.7-10.1-4.8c-3.6-1.1-7.5-1.7-11.4-1.7H37.3c-5.3,0-10.3,1.1-15,3
		c-6.9,2.9-12.7,7.8-16.9,13.9c-2.1,3.1-3.7,6.4-4.8,10.1c-1.1,3.6-1.7,7.5-1.7,11.4v213.3c0,5.3,1.1,10.3,3,15
		C4.8,452.2,9.7,458,15.8,462.2z M33,217c0-0.6,0.1-1.2,0.3-1.7c0.3-0.7,0.9-1.4,1.6-1.9c0.3-0.2,0.7-0.4,1.1-0.5s0.8-0.2,1.3-0.2
		v0.1H80c0.6,0,1.2,0.1,1.7,0.3c0.7,0.3,1.4,0.9,1.9,1.6c0.2,0.3,0.4,0.7,0.5,1.1c0.1,0.4,0.2,0.8,0.2,1.3v213.3
		c0,0.6-0.1,1.2-0.3,1.7c-0.3,0.7-0.9,1.4-1.6,1.9c-0.3,0.2-0.7,0.4-1.1,0.5s-0.8,0.2-1.3,0.2H37.3c-0.6,0-1.2-0.1-1.7-0.3
		c-0.7-0.3-1.4-0.9-1.9-1.6c-0.2-0.3-0.4-0.7-0.5-1.1s-0.2-0.8-0.2-1.3V217z"/>
	<path class="st0" d="M169,462.2c3.1,2.1,6.4,3.7,10.1,4.8c3.6,1.1,7.5,1.7,11.4,1.7h42.7c5.3,0,10.3-1.1,15-3
		c6.9-2.9,12.7-7.8,16.9-13.9c2.1-3.1,3.7-6.4,4.8-10.1c1.1-3.6,1.7-7.5,1.7-11.4V148.7c0-5.3-1.1-10.3-3-15
		c-2.9-6.9-7.8-12.7-13.9-16.9c-3.1-2.1-6.4-3.7-10.1-4.8c-3.6-1.1-7.5-1.7-11.4-1.7h-42.7c-5.3,0-10.3,1.1-15,3
		c-6.9,2.9-12.7,7.8-16.9,13.9c-2.1,3.1-3.7,6.4-4.8,10.1c-1.1,3.6-1.7,7.5-1.7,11.4v281.6c0,5.3,1.1,10.3,3,15
		C158,452.2,162.9,458,169,462.2z M186.2,148.7c0-0.6,0.1-1.2,0.3-1.7c0.3-0.7,0.9-1.4,1.6-1.9c0.3-0.2,0.7-0.4,1.1-0.5
		c0.4-0.1,0.8-0.2,1.3-0.2v0.1h42.7c0.6,0,1.2,0.1,1.7,0.3c0.7,0.3,1.4,0.9,1.9,1.6c0.2,0.3,0.4,0.7,0.5,1.1s0.2,0.8,0.2,1.3v281.6
		c0,0.6-0.1,1.2-0.3,1.7c-0.3,0.7-0.9,1.4-1.6,1.9c-0.3,0.2-0.7,0.4-1.1,0.5s-0.8,0.2-1.3,0.2h-42.7c-0.6,0-1.2-0.1-1.7-0.3
		c-0.7-0.3-1.4-0.9-1.9-1.6c-0.2-0.3-0.4-0.7-0.5-1.1s-0.2-0.8-0.2-1.3V148.7z"/>
</g>
</svg>
