<?xml version="1.0" encoding="utf-8"?>
<!-- Generator: Adobe Illustrator 19.0.0, SVG Export Plug-In . SVG Version: 6.00 Build 0)  -->
<svg version="1.1" id="Capa_1" xmlns="http://www.w3.org/2000/svg" xmlns:xlink="http://www.w3.org/1999/xlink" x="0px" y="0px"
	 viewBox="-222 224.3 53.7 53.7" style="enable-background:new -222 224.3 53.7 53.7;" xml:space="preserve">
<style type="text/css">
	.st0{fill:#FFFFFF;}
</style>
<g>
	<path class="st0" d="M-179.2,234.5L-179.2,234.5C-179.2,234.5-179.2,234.5-179.2,234.5c0-0.6-0.3-1.2-0.8-1.6
		c-2.6-1.7-7.6-4.1-12.5-2.1v-3.7c0-1.5-1.1-2.8-2.5-2.8h-2.2c-1.4,0-2.5,1.3-2.5,2.8v4.1c-2.2-0.4-7.1-0.8-11.7,2
		c-0.7,0.4-1,1.3-0.7,2c0,0.1,0.1,0.1,0.1,0.2c-0.1,0-0.2,0.1-0.3,0.1c-0.2,0.1-0.5,0.2-0.7,0.3c-5.5,4.6-8.7,11.1-8.7,17.9
		c0,13.4,11.9,24.2,26.4,24.2c14.6,0,26.4-10.9,26.4-24.2C-168.7,246.1-172.5,239.1-179.2,234.5z M-199.7,233.2c0.5,0.1,1,0,1.4-0.3
		c0.4-0.3,0.6-0.8,0.6-1.3v-4.5c0-0.4,0.3-0.8,0.5-0.8h2.2c0.2,0,0.5,0.3,0.5,0.8v4.2c0,0.6,0.3,1.1,0.8,1.4
		c0.5,0.3,1.1,0.4,1.6,0.1c3.7-1.7,7.5-0.2,10,1.1c-2.3,0-4.2,0.2-5.7,0.5c-0.7,0.2-1.1,0.7-1.2,1.4c-0.1,0.7,0.2,1.4,0.8,1.7
		c1.5,0.9,2.4,1.8,3,2.8c0.5,0.7,0.7,1.3,0.9,2c-2.2-1.8-4.6-2.5-6.3-2.7c-0.6-0.1-1-0.1-1.4-0.1c-0.5,0-0.9,0.2-1.2,0.5
		c-0.3,0.3-0.5,0.8-0.5,1.2c0.1,5.1-1.7,8.6-2.7,10.1c-1-2.1-1.3-6.6-1.2-10.3c0-0.9-0.6-1.6-1.5-1.7c-0.3,0-0.5,0-0.8,0
		c-0.1,0-0.1,0-0.1,0c-0.1,0-0.3,0-0.4,0c-0.2,0-0.4,0-0.6,0.1c-0.1,0-0.3,0.1-0.4,0.1c-0.2,0-0.4,0.1-0.6,0.2
		c-0.1,0-0.3,0.1-0.4,0.1c-0.2,0.1-0.4,0.2-0.7,0.2c-0.1,0-0.2,0.1-0.4,0.1c-0.2,0.1-0.4,0.2-0.7,0.3c-0.1,0.1-0.2,0.1-0.3,0.2
		c-0.2,0.1-0.4,0.2-0.7,0.4c-0.1,0.1-0.2,0.1-0.3,0.2c-0.2,0.1-0.5,0.3-0.7,0.4c-0.1,0.1-0.2,0.1-0.2,0.1c-0.3,0.2-0.6,0.4-0.9,0.6
		c0.4-0.6,0.7-1.2,1.1-1.7c0,0,0-0.1,0.1-0.1c0.4-0.5,0.8-1,1.2-1.4c0,0,0,0,0,0c0.5-0.5,1-1,1.5-1.3c0.1,0,0.1-0.1,0.2-0.1
		c0,0,0.1,0,0.1-0.1c0.1-0.1,0.2-0.2,0.4-0.2c0.5-0.3,0.8-0.9,0.7-1.6c-0.1-0.6-0.5-1.2-1.1-1.4c-0.1,0-0.1,0-0.2,0
		c-0.2-0.1-0.5-0.1-0.7-0.2c-0.2,0-0.3-0.1-0.5-0.1c0,0,0,0-0.1,0c0,0,0,0,0,0c-1.1-0.2-2.5-0.2-4.1-0.1
		C-204.8,232.5-201.2,232.9-199.7,233.2z M-195.2,276c-13.5,0-24.4-10-24.4-22.2c0-6.2,2.9-12.2,7.9-16.3c2.2-0.6,4.5-1,6.8-1.4
		c0.1,0,0.2,0,0.2,0c0.1,0,0.1,0,0.2,0c-0.1,0.1-0.2,0.1-0.3,0.2c-0.1,0.1-0.2,0.2-0.3,0.2c-0.1,0.1-0.2,0.2-0.3,0.3
		c-0.1,0.1-0.2,0.2-0.4,0.3c-0.1,0.1-0.2,0.2-0.4,0.3c-0.1,0.1-0.2,0.2-0.3,0.3c-0.2,0.2-0.4,0.4-0.6,0.7c0,0-0.1,0.1-0.1,0.1
		c-1,1.1-1.9,2.5-2.7,4.3c-0.3,0.7-0.1,1.5,0.5,2c0.6,0.5,1.5,0.5,2.1,0c1.7-1.4,4.9-3.7,7.5-3.5c0,2.8,0.1,8.9,1.8,11.5
		c0.3,0.5,0.8,0.8,1.4,0.8c0,0,0,0,0.1,0c0.5,0,1-0.3,1.4-0.7c1-1.4,3.4-5.4,3.4-11.4c1.5,0.1,4.4,0.6,6.8,2.9
		c0.5,0.5,1.3,0.6,1.9,0.3c0.6-0.3,1-1,0.9-1.7c-0.1-0.5-0.2-1-0.3-1.5c0,0,0,0,0-0.1c-0.2-0.5-0.4-1-0.7-1.5c0-0.1-0.1-0.1-0.1-0.2
		c-0.1-0.2-0.3-0.4-0.4-0.7c-0.1-0.1-0.1-0.2-0.1-0.2c-0.1-0.2-0.3-0.3-0.4-0.5c-0.1-0.1-0.2-0.2-0.3-0.4c-0.1-0.1-0.3-0.3-0.4-0.4
		c-0.2-0.1-0.3-0.3-0.5-0.4c-0.2-0.1-0.3-0.2-0.5-0.4c-0.2-0.2-0.4-0.3-0.6-0.5c0.5-0.1,1.1-0.2,1.9-0.2c0,0,0.1,0,0.1,0
		c0.2,0,0.3,0,0.5,0c0.1,0,0.2,0,0.3,0c0.1,0,0.2,0,0.4,0c0.2,0,0.3,0,0.5,0c0.1,0,0.2,0,0.2,0c0.3,0,0.6,0,1,0l0.4,0
		c0.3,0,0.6,0.1,0.9,0.1l0.2,0c6.1,4.2,9.5,10.7,9.5,17.6C-170.7,266-181.7,276-195.2,276z"/>
	<path class="st0" d="M-215.5,255c-0.1-0.5-0.6-0.9-1.1-0.8c-0.5,0.1-0.9,0.6-0.8,1.1c0.2,1.5,0.7,2.9,1.5,4.1
		c0.2,0.3,0.5,0.5,0.9,0.5c0.2,0,0.3,0,0.5-0.1c0.5-0.3,0.6-0.9,0.4-1.4C-215,257.4-215.4,256.2-215.5,255z"/>
	<path class="st0" d="M-216.5,252C-216.5,252-216.4,252-216.5,252c0.6,0,1-0.4,1.1-0.9c0.1-1.1,0.3-2.2,0.7-3.3
		c0.2-0.5-0.1-1.1-0.6-1.3c-0.5-0.2-1.1,0.1-1.3,0.6c-0.4,1.2-0.7,2.5-0.8,3.8C-217.4,251.5-217,252-216.5,252z"/>
</g>
</svg>
